<svg xmlns="http://www.w3.org/2000/svg" width="33" height="64" ><path fill-rule="evenodd" d="M32 1.184c.064-.576 0-.512-.225-1.024-.064-.096-.16-.16-.3-.16-.354 0-.934.448-1.256.8-2.19 2.432-4.86 6.528-6.278 7.008-.708.256-1.384-.992-1.867-1.44-1.932-1.888-4.4-4-8.435-5.248C11.526.416 9.723-.192 9.047.128c-1.256.576.547 1.728 1.256 2.496.547.576 1.16.512 1.803.224.483-.192 1.062-.192 1.545 0 3.638 1.472 5.698 2.88 7.79 5.12.676.768 1.095 1.728.45 2.336l-6.535 6.4c-.483.48-1.062 1.12-1.674 1.088-.386-.032-.998-.448-1.352-.672-.612-.416-1.16-.64-1.738-1.088-.515-.384-.612-.736-.644-1.376-.032-1.056.225-1.952.386-2.752l.87-4.352c.225-1.12.354-2.56.258-3.744-.097-.288-.58-.352-.9-.128l-.258 1.248-.386 2.56-1.256 6.464-.225 1.632c-.064.704.16 1.568-.064 2.016-.3.64-.547 1.152-.386 2.016.13.832-.064 1.056-.58 1.472-.74.608-2.382 1.824-3.316 2.368-.515.32-1.16.928-.773 1.568.354.64 1.16.768 1.867.8 1.095.064 2.48-1.344 3.54-1.568.42-.096.998-.256 1.352.032.45.32.547.832.644 1.344.418 1.92.3 2.912.16 4.96-.097 1.216-.386 3.424-.805 4.576-.322.896-.644 1.28-1.384 1.92-.676.576-1.48 1.376-1.706 2.784-.097.672.354 2.272-.354 4.096l-1.48 3.744-1.095 2.88c-.676 1.792-.773 1.664-1.32 3.488l-1.03 3.424c-.515 1.632-.322 1.536-1.127 3.2-.225.416-.837 1.728-.386 2.56.193.352.708.736 1.095.736h.097c.805-.192 1.417-.48 1.803-1.28.354-.736.16-1.792.42-2.56l1.932-5.248c.837-1.824.74-2.528 1.48-4.448.805-2.176 1.352-3.52 2.51-5.504 1.384-2.336 5-5.504 6.535-6.624 2.415-1.696 3.928-2.816 3.606-.864-.258 1.664-3.1 5.824-3.702 7.2-.322.672-.354 1.376-.064 1.952.354.736 1.16 1.728 1.964 1.664.74-.032 1.384-1.024 1.16-1.728-.3-.864-.322-1.504.74-3.552 1.32-2.528 3.412-6.144 3.026-9.312-.13-1.152-1.513-1.728-2.64-1.344-1.288.448-3.412 2.144-4.732 2.848-.9.48-1.545.672-1.642-.288-.097-.896.097-1.952.16-2.88l.42-7.392c.097-.832.934-1.952 1.642-1.312l7.404 6.08c.934.736 1.352 1.376 1.803 2.688.225.64.032 1.6-.193 2.496-.097.416.097 1.024.998.416 2.092-2.816 3.51-7.392 3.51-10.944.032-3.136.386-6.528-2.994-12.032-.547-.896-1.835-2.88-.58-4.192 1.77-1.92 5.28-5.152 6.052-6.656zm-4.25 19.296a39.06 39.06 0 0 1 .129 3.36c0 .8-.3 1.792-.45 2.88-.097.736-.16 1.792-.515 2.848-.064.16-.258.64-.612.64-.386.032-.515-.48-.708-.704-.676-.768-1.223-1.504-1.964-2.112a39.55 39.55 0 0 0-2.672-1.856c-.708-.48-1.45-1.28-2.157-1.792-.74-.544-1.416-1.056-2.093-1.696-.193-.16-.42-.448-.515-.64a1.76 1.76 0 0 1-.032-1.216c.16-.544.515-1.024.837-1.504.42-.608.87-1.184 1.352-1.728.3-.32.773-.768 1.127-.992.547-.32.773-.416 1.223-.864.45-.416.42-.832.87-1.28s.998-1.312 1.545-1.696c.225-.16.612-.32.87-.192.354.128.708.576.9.896 1.48 2.624 2.64 4.8 2.865 7.648z" fill="#1f4766"/></svg>